<?xml version="1.0" encoding="utf-8"?>
<!-- Generator: Adobe Illustrator 24.1.2, SVG Export Plug-In . SVG Version: 6.00 Build 0)  -->
<svg version="1.1" id="Layer_1" xmlns="http://www.w3.org/2000/svg" xmlns:xlink="http://www.w3.org/1999/xlink" x="0px" y="0px"
	 viewBox="0 0 257.1 28.6" style="enable-background:new 0 0 257.1 28.6;" xml:space="preserve">
<style type="text/css">
	.st0{fill:#043148;}
	.st1{fill:#929395;}
	.st2{fill:#A62C1C;}
	.st3{fill:#FFFFFF;}
</style>
<g id="Group_30" transform="translate(-28.347 -28.343)">
	<g id="Group_25" transform="translate(28.347 30.28)">
		<g id="Group_21" transform="translate(221.387)">
			<path id="Path_98" class="st0" d="M2.3,2.2c0.1,0,0.2,0,0.3-0.1C2.7,2,2.8,1.9,2.8,1.8c0-0.2-0.2-0.4-0.5-0.4H1.8v0.7L2.3,2.2z
				 M1.3,1h1C2.6,1,2.8,1.1,3,1.2c0.2,0.1,0.3,0.3,0.2,0.5c0,0.2,0,0.3-0.1,0.4C3,2.3,2.8,2.4,2.7,2.4l0.6,0.8H2.8L2.2,2.5H1.8v0.8
				H1.3V1z M2.2,4.2C2.5,4.2,2.7,4.1,3,4c0.2-0.1,0.4-0.2,0.6-0.4C3.7,3.4,3.9,3.2,4,3c0.1-0.2,0.2-0.5,0.2-0.8v0
				c0-0.3,0-0.5-0.1-0.8C3.9,1.2,3.8,1,3.6,0.8C3.4,0.6,3.2,0.5,3,0.4c-0.5-0.2-1-0.2-1.5,0C1,0.6,0.6,1,0.4,1.4
				C0.3,1.7,0.2,1.9,0.3,2.2v0c0,0.3,0,0.5,0.1,0.8c0.1,0.2,0.2,0.4,0.4,0.6C1,3.8,1.2,3.9,1.4,4C1.7,4.1,1.9,4.2,2.2,4.2 M2.2,4.4
				c-0.3,0-0.6-0.1-0.9-0.2C1.1,4.1,0.8,4,0.6,3.8C0.2,3.4,0,2.8,0,2.2v0c0-0.3,0.1-0.6,0.2-0.9c0.2-0.5,0.6-1,1.2-1.2
				c0.5-0.2,1.2-0.2,1.7,0c0.3,0.1,0.5,0.3,0.7,0.5c0.2,0.2,0.4,0.4,0.5,0.7c0.1,0.3,0.2,0.6,0.2,0.9v0c0,0.3-0.1,0.6-0.2,0.8
				C4.1,3.3,3.9,3.6,3.7,3.8C3.5,4,3.3,4.1,3,4.2C2.8,4.4,2.5,4.4,2.2,4.4"/>
		</g>
		<g id="Group_24" transform="translate(0 0.259)">
			<g id="Group_22">
				<path id="Path_99" class="st0" d="M12.7,3.5c-5.1,0-8.5,3.6-8.5,9.5c0,5.8,3.4,9.4,8.5,9.4c5,0,8.4-3.6,8.4-9.4
					C21.1,7.3,18,3.5,12.7,3.5 M3.6,3.7C6,1.3,9.3-0.1,12.7,0c3.6-0.1,7.1,1.3,9.5,3.9c2.1,2.5,3.3,5.7,3.2,8.9
					c0.1,3.5-1.2,6.9-3.6,9.4c-2.4,2.3-5.7,3.6-9.1,3.5c-3.2,0.1-6.3-1-8.7-3.1c-2.6-2.5-4.1-6-4-9.7C-0.1,9.5,1.2,6.2,3.6,3.7"/>
			</g>
			<path id="Path_100" class="st0" d="M29,25.4V0.2h4v21.7h9.2v3.4H29z"/>
			<g id="Group_23" transform="translate(46.064)">
				<path id="Path_101" class="st0" d="M6.9,3.7H4v18.2h2.9c7,0,9.6-4.4,9.6-9.3C16.5,7.5,13.4,3.7,6.9,3.7 M6.8,25.4H0V0.2h6.9
					c9.3,0,13.9,5.1,13.9,12.3C20.8,19.9,15.8,25.4,6.8,25.4"/>
				<path id="Path_102" class="st0" d="M60.4,25.4L48.6,9.9c-0.9-1.2-1.8-2.4-2.5-3.6H46C46,7.1,46,8.4,46,9.6v15.8h-4V0.2h4
					l11.4,14.9c1,1.2,1.9,2.5,2.6,3.8h0.1c0-1-0.1-2.3-0.1-3.5V0.2h4v25.1H60.4z"/>
				<path id="Path_103" class="st0" d="M75.7,3.7h-2.9v18.2h2.9c7,0,9.6-4.4,9.6-9.3C85.3,7.5,82.2,3.7,75.7,3.7 M75.5,25.4h-6.8
					V0.2h6.9c9.3,0,13.9,5.1,13.9,12.3C89.5,19.9,84.6,25.4,75.5,25.4"/>
				<path id="Path_104" class="st0" d="M105,3.5c-5.1,0-8.5,3.6-8.5,9.5c0,5.8,3.4,9.4,8.5,9.4c5,0,8.4-3.6,8.4-9.4
					C113.5,7.3,110.3,3.5,105,3.5 M95.9,3.7c5.3-5,13.5-4.9,18.7,0.3c2.1,2.5,3.3,5.7,3.2,8.9c0.1,3.5-1.2,6.9-3.6,9.4
					c-2.4,2.3-5.7,3.6-9.1,3.5c-6.7,0.4-12.4-4.8-12.7-11.4c0-0.4,0-0.9,0-1.3C92.2,9.5,93.5,6.2,95.9,3.7"/>
				<path id="Path_105" class="st0" d="M127.4,3.7h-2.3v8.2h2.3c2.3,0.2,4.3-1.5,4.5-3.9c0-0.1,0-0.2,0-0.3
					C131.9,5.5,130.6,3.7,127.4,3.7 M134.2,25.4c-3.9-6.5-5.8-10-7.2-10h-1.9v10h-4V0.2h6.3c6.3,0,8.7,3.3,8.7,7.1
					c0.2,3-1.8,5.8-4.7,6.6V14c1,0.5,3.7,5,7.6,11.4L134.2,25.4z"/>
			</g>
			<path id="Path_106" class="st0" d="M191.6,10.9V3.7h9.3l1.2-3.4h-14.5v25.1h4v-11h5.4l1.2-3.4L191.6,10.9z"/>
			<path id="Path_107" class="st0" d="M208.8,10.9V3.7h9.3l1.3-3.4h-14.5v25.1h4v-11h5.4l1.3-3.4L208.8,10.9z"/>
			<path id="Path_108" class="st0" d="M84.1,25.4v-3.5h-9.8v-7.6h5.4l1.3-3.4h-6.6V3.7h9.3l1.2-3.4H70.3v25.1l0,0H84.1z"/>
		</g>
	</g>
	<g id="Group_27" transform="translate(253.013 28.343)">
		<g id="Group_26">
			<path id="Path_109" class="st0" d="M11.4,5.9c-3.5,0-4.1,1.7-4.9,3.8L2.6,20.4c0.9-1.1,1.9-1.4,4-1.4h25.8V5.9H11.4z"/>
			<path id="Path_110" class="st1" d="M31.7,0H13.5c-3.5,0-4.3,2.1-5,4.1L8,5.6c0.9-1.1,1.9-1.4,4-1.4h20.4V0.7
				C32.5,0.3,32.1,0,31.7,0C31.7,0,31.7,0,31.7,0z"/>
			<path id="Path_111" class="st2" d="M6,20.7c-3.5,0-4.1,1.7-4.9,3.8L0,27.6h32.4v-6.9H6z"/>
		</g>
		<path id="Path_112" class="st3" d="M22.9,15.9c-0.5,0-1-0.1-1.5-0.3c-0.4-0.2-0.8-0.4-1.2-0.8c-0.3-0.3-0.6-0.7-0.8-1.1
			c-0.2-0.4-0.3-0.9-0.3-1.4v0c0-0.5,0.1-1,0.3-1.4c0.2-0.4,0.4-0.8,0.8-1.1C20.6,9.4,21,9.2,21.4,9c0.5-0.2,1-0.3,1.5-0.3
			c0.5,0,1,0.1,1.5,0.3c0.4,0.2,0.8,0.4,1.2,0.8c0.3,0.3,0.6,0.7,0.8,1.1c0.2,0.4,0.3,0.9,0.3,1.4v0c0,1-0.4,1.9-1,2.5
			c-0.3,0.3-0.7,0.6-1.2,0.8C23.9,15.8,23.4,15.9,22.9,15.9z M22.9,14.5c0.3,0,0.6-0.1,0.8-0.2c0.2-0.1,0.5-0.3,0.7-0.5
			c0.2-0.2,0.3-0.4,0.4-0.7c0.1-0.3,0.2-0.6,0.2-0.8v0c0-0.3,0-0.6-0.2-0.8c-0.1-0.3-0.2-0.5-0.4-0.7c-0.2-0.2-0.4-0.4-0.7-0.5
			c-0.3-0.1-0.6-0.2-0.8-0.2c-0.3,0-0.6,0.1-0.9,0.2c-0.2,0.1-0.5,0.3-0.7,0.5c-0.2,0.2-0.3,0.4-0.4,0.7c-0.1,0.3-0.2,0.6-0.2,0.8v0
			c0,0.3,0.1,0.6,0.2,0.8c0.1,0.3,0.2,0.5,0.4,0.7c0.2,0.2,0.4,0.4,0.7,0.5C22.3,14.4,22.6,14.5,22.9,14.5L22.9,14.5z"/>
		<path id="Path_113" class="st3" d="M13.3,8.8h5.2v1.4h-3.7v1.4h2.6V13h-2.6v1.5h3.8v1.4h-5.3L13.3,8.8z"/>
	</g>
	<g id="Group_29" transform="translate(254.298 32.476)">
		<g id="Group_28" transform="translate(0 0)">
			<path id="Path_114" class="st3" d="M1.3,16.2L0,19.9c0.7-1.8,1.5-3.4,4.7-3.4h26.4v-1.7H5.4C3.3,14.8,2.3,15.2,1.3,16.2z"/>
			<path id="Path_115" class="st3" d="M6.7,1.4l-1.5,4c0.7-2,1.4-3.7,4.9-3.7h21V0H10.8C8.7,0,7.7,0.3,6.7,1.4z"/>
		</g>
	</g>
</g>
</svg>
