<svg xmlns="http://www.w3.org/2000/svg" viewBox="32 4 416 396"><defs><mask id="gdarks-m" maskUnits="userSpaceOnUse" x="30" y="2" width="420" height="420"><rect x="30" y="2" width="420" height="420" fill="#fff"/><rect x="-14.00" y="-11.00" width="28.00" height="23.00" transform="translate(83.93 249.47) rotate(-103.50)" fill="#000"/><rect x="-14.00" y="-11.00" width="28.00" height="23.00" transform="translate(81.70 185.51) rotate(-80.50)" fill="#000"/><rect x="-14.00" y="-11.00" width="28.00" height="23.00" transform="translate(104.64 125.76) rotate(-57.50)" fill="#000"/><rect x="-14.00" y="-11.00" width="28.00" height="23.00" transform="translate(149.09 79.73) rotate(-34.50)" fill="#000"/><rect x="-14.00" y="-11.00" width="28.00" height="23.00" transform="translate(208.00 54.72) rotate(-11.50)" fill="#000"/><rect x="-14.00" y="-11.00" width="28.00" height="23.00" transform="translate(272.00 54.72) rotate(11.50)" fill="#000"/><rect x="-14.00" y="-11.00" width="28.00" height="23.00" transform="translate(330.91 79.73) rotate(34.50)" fill="#000"/><rect x="-14.00" y="-11.00" width="28.00" height="23.00" transform="translate(375.36 125.76) rotate(57.50)" fill="#000"/><rect x="-14.00" y="-11.00" width="28.00" height="23.00" transform="translate(398.30 185.51) rotate(80.50)" fill="#000"/><rect x="-14.00" y="-11.00" width="28.00" height="23.00" transform="translate(396.07 249.47) rotate(103.50)" fill="#000"/></mask><mask id="gdarks-h" maskUnits="userSpaceOnUse" x="40" y="12" width="400" height="400"><rect x="40" y="12" width="400" height="400" fill="#fff"/><circle cx="240" cy="212" r="33.5" fill="#000"/></mask></defs><path d="M81.40 285.96 A175.0 175.0 0 1 1 398.60 285.96" fill="none" stroke="#f6c800" stroke-width="50" mask="url(#gdarks-m)"/><path fill="#f6c800" d="M219.95 197.96 L316.86 102.23 L260.05 226.04 Z" mask="url(#gdarks-h)"/><path fill="#f6c800" fill-rule="evenodd" d="M206.00 212.00 a34.0 34.0 0 1 0 68.00 0 a34.0 34.0 0 1 0 -68.00 0 Z M225.00 212.00 a15.0 15.0 0 1 1 30.00 0 a15.0 15.0 0 1 1 -30.00 0 Z"/><path fill="#f6c800" transform="translate(67.22 390) scale(0.05469 -0.05469)" d="M1043 20Q942 0 829 0H161L474 1474H1190Q1460 1470 1540 1317Q1588 1223 1561 1092Q1532 957 1446 875Q1399 829 1317 791Q1421 750 1459.5 661.0Q1498 572 1471 445Q1443 314 1355 210Q1298 141 1225 94Q1143 40 1043 20ZM959 649H592L509 256H871Q968 256 1027 282Q1136 330 1165 466Q1189 581 1103 624Q1055 648 959 649ZM1172 930Q1240 966 1260 1059Q1281 1162 1209 1195Q1144 1218 1037 1218H713L644 893H1006Q1103 893 1172 930Z"/><path fill="#f6c800" transform="translate(154.82 390) scale(0.05469 -0.05469)" d="M1577 1347Q1757 1144 1671 739Q1586 342 1318 131Q1115 -41 799 -41Q483 -41 352 131Q173 342 258 739Q344 1144 611 1347Q814 1519 1130 1519Q1446 1519 1577 1347ZM1075 1258Q892 1258 754.5 1123.0Q617 988 564 739Q511 490 591.0 355.0Q671 220 854 220Q1037 220 1173.5 355.0Q1310 490 1363 739Q1415 987 1336.5 1122.5Q1258 1258 1075 1258Z"/><path fill="#f6c800" transform="translate(248.66 390) scale(0.05469 -0.05469)" d="M847 900 1088 839Q1246 799 1317 732Q1427 628 1385 431Q1342 229 1159.0 95.5Q976 -38 694 -38Q406 -38 269.0 93.5Q132 225 181 455H475Q468 354 498 304Q554 213 736 213Q845 213 918 237Q1057 283 1083 408Q1099 481 1043 521Q988 560 857 590L708 625Q489 677 414 738Q287 840 333 1057Q375 1255 547.0 1386.0Q719 1517 998 1517Q1231 1517 1369.0 1393.5Q1507 1270 1465 1035H1169Q1190 1168 1094 1224Q1030 1261 923 1261Q804 1261 722.5 1213.0Q641 1165 623 1079Q606 1000 668 961Q707 935 847 900Z"/><path fill="#f6c800" transform="translate(330.08 390) scale(0.05469 -0.05469)" d="M847 900 1088 839Q1246 799 1317 732Q1427 628 1385 431Q1342 229 1159.0 95.5Q976 -38 694 -38Q406 -38 269.0 93.5Q132 225 181 455H475Q468 354 498 304Q554 213 736 213Q845 213 918 237Q1057 283 1083 408Q1099 481 1043 521Q988 560 857 590L708 625Q489 677 414 738Q287 840 333 1057Q375 1255 547.0 1386.0Q719 1517 998 1517Q1231 1517 1369.0 1393.5Q1507 1270 1465 1035H1169Q1190 1168 1094 1224Q1030 1261 923 1261Q804 1261 722.5 1213.0Q641 1165 623 1079Q606 1000 668 961Q707 935 847 900Z"/></svg>